<?xml version="1.0" ?>
<!-- Uploaded to: SVG Repo, www.svgrepo.com, Generator: SVG Repo Mixer Tools -->
<svg fill="#000000" width="800px" height="800px" viewBox="0 0 32 32" enable-background="new 0 0 32 32" id="Layer_3" version="1.1" xml:space="preserve" xmlns="http://www.w3.org/2000/svg" xmlns:xlink="http://www.w3.org/1999/xlink">
<g>
<path d="M22,7c-1.654,0-3,1.346-3,3c0,0.68,0.236,1.301,0.619,1.805C18.642,12.535,18,13.69,18,15h-4   c0-1.31-0.642-2.465-1.619-3.195C12.764,11.301,13,10.68,13,10c0-1.654-1.346-3-3-3s-3,1.346-3,3c0,0.68,0.236,1.301,0.619,1.805   C6.642,12.535,6,13.69,6,15H5c-0.469,0-0.875,0.326-0.976,0.783l-2,9c-0.066,0.296,0.006,0.606,0.196,0.842   C2.41,25.862,2.697,26,3,26h3.556C6.212,26.591,6,27.268,6,28v1c0,0.552,0.448,1,1,1h6c0.552,0,1-0.448,1-1v-1   c0-0.732-0.212-1.409-0.556-2h5.113C18.212,26.591,18,27.268,18,28v1c0,0.552,0.448,1,1,1h6c0.552,0,1-0.448,1-1v-1   c0-0.732-0.212-1.409-0.556-2H29c0.303,0,0.59-0.138,0.78-0.375c0.189-0.236,0.262-0.546,0.196-0.842l-2-9   C27.875,15.326,27.469,15,27,15h-1c0-1.31-0.642-2.465-1.619-3.195C24.764,11.301,25,10.68,25,10C25,8.346,23.654,7,22,7z M21,10   c0-0.551,0.449-1,1-1s1,0.449,1,1s-0.449,1-1,1S21,10.551,21,10z M9,10c0-0.551,0.449-1,1-1s1,0.449,1,1s-0.449,1-1,1   S9,10.551,9,10z M10,13c1.103,0,2,0.897,2,2H8C8,13.897,8.897,13,10,13z M9,23c0-0.551,0.449-1,1-1s1,0.449,1,1s-0.449,1-1,1   S9,23.551,9,23z M12,28H8c0-1.103,0.897-2,2-2S12,26.897,12,28z M21,23c0-0.551,0.449-1,1-1s1,0.449,1,1s-0.449,1-1,1   S21,23.551,21,23z M24,28h-4c0-1.103,0.897-2,2-2S24,26.897,24,28z M26.198,17l1.556,7h-2.938C24.928,23.686,25,23.352,25,23   c0-1.654-1.346-3-3-3s-3,1.346-3,3c0,0.352,0.072,0.686,0.184,1h-6.369C12.928,23.686,13,23.352,13,23c0-1.654-1.346-3-3-3   s-3,1.346-3,3c0,0.352,0.072,0.686,0.184,1H4.247l1.556-7H7h6h6h6H26.198z M20,15c0-1.103,0.897-2,2-2s2,0.897,2,2H20z"/>
<path d="M18,2h-4c-1.654,0-3,1.346-3,3s1.346,3,3,3h0.865l1.367,1.64C16.423,9.87,16.705,10,17,10c0.038,0,0.077-0.002,0.115-0.007   c0.335-0.039,0.628-0.244,0.779-0.546l0.759-1.519C19.995,7.629,21,6.43,21,5C21,3.346,19.654,2,18,2z M18,6   c-0.379,0-0.725,0.214-0.895,0.553L16.79,7.185L16.102,6.36C15.912,6.132,15.63,6,15.333,6H14c-0.551,0-1-0.449-1-1s0.449-1,1-1h4   c0.551,0,1,0.449,1,1S18.551,6,18,6z"/>
</g>
</svg>